HIERARCHY
ROOT Hips
{
	OFFSET 0.000000 0.000000 0.000000
	CHANNELS 6 Xposition Yposition Zposition Zrotation Xrotation Yrotation
	JOINT Spine
	{
		OFFSET 0.000000 -0.000012 73.129562
		CHANNELS 6 Xposition Yposition Zposition Zrotation Xrotation Yrotation
		JOINT Spine1
		{
			OFFSET 0.000000 -0.000027 165.477310
			CHANNELS 6 Xposition Yposition Zposition Zrotation Xrotation Yrotation
			JOINT Neck
			{
				OFFSET 0.000000 -0.000030 183.313782
				CHANNELS 6 Xposition Yposition Zposition Zrotation Xrotation Yrotation
				JOINT Head
				{
					OFFSET 0.000000 -17.836500 138.232727
					CHANNELS 6 Xposition Yposition Zposition Zrotation Xrotation Yrotation
					End Site
					{
						OFFSET 0.000000 -0.000029 178.364807
					}
				}
			}
			JOINT LeftShoulder
			{
				OFFSET 35.598560 3.890319 149.571350
				CHANNELS 6 Xposition Yposition Zposition Zrotation Xrotation Yrotation
				JOINT LeftArm
				{
					OFFSET 103.175430 0.000000 0.000000
					CHANNELS 6 Xposition Yposition Zposition Zrotation Xrotation Yrotation
					JOINT LeftForeArm
					{
						OFFSET 267.561951 0.000000 0.000000
						CHANNELS 6 Xposition Yposition Zposition Zrotation Xrotation Yrotation
						JOINT LeftHand
						{
							OFFSET 239.300110 0.000000 0.000000
							CHANNELS 6 Xposition Yposition Zposition Zrotation Xrotation Yrotation
							End Site
							{
								OFFSET 133.773621 0.000000 0.000000
							}
						}
					}
				}
			}
			JOINT RightShoulder
			{
				OFFSET -35.671310 3.890319 149.571350
				CHANNELS 6 Xposition Yposition Zposition Zrotation Xrotation Yrotation
				JOINT RightArm
				{
					OFFSET -103.175430 0.000000 0.000000
					CHANNELS 6 Xposition Yposition Zposition Zrotation Xrotation Yrotation
					JOINT RightForeArm
					{
						OFFSET -267.561951 0.000000 0.000000
						CHANNELS 6 Xposition Yposition Zposition Zrotation Xrotation Yrotation
						JOINT RightHand
						{
							OFFSET -239.300110 0.000000 0.000000
							CHANNELS 6 Xposition Yposition Zposition Zrotation Xrotation Yrotation
							End Site
							{
								OFFSET -133.773621 0.000000 0.000000
							}
						}
					}
				}
			}
		}
	}
	JOINT LeftUpLeg
	{
		OFFSET 89.182388 0.000000 0.000000
		CHANNELS 6 Xposition Yposition Zposition Zrotation Xrotation Yrotation
		JOINT LeftLeg
		{
			OFFSET 0.000000 0.000076 -464.167633
			CHANNELS 6 Xposition Yposition Zposition Zrotation Xrotation Yrotation
			JOINT LeftFoot
			{
				OFFSET 0.000000 0.000061 -372.878387
				CHANNELS 6 Xposition Yposition Zposition Zrotation Xrotation Yrotation
				JOINT LeftToeBase
				{
					OFFSET 0.000000 -133.773575 -57.968567
					CHANNELS 6 Xposition Yposition Zposition Zrotation Xrotation Yrotation
					End Site
					{
						OFFSET 0.000000 -35.672958 0.000000
					}
				}
			}
		}
	}
	JOINT RightUpLeg
	{
		OFFSET -89.182388 0.000000 0.000000
		CHANNELS 6 Xposition Yposition Zposition Zrotation Xrotation Yrotation
		JOINT RightLeg
		{
			OFFSET 0.000000 0.000076 -464.167633
			CHANNELS 6 Xposition Yposition Zposition Zrotation Xrotation Yrotation
			JOINT RightFoot
			{
				OFFSET 0.000000 0.000061 -372.878387
				CHANNELS 6 Xposition Yposition Zposition Zrotation Xrotation Yrotation
				JOINT RightToeBase
				{
					OFFSET 0.000000 -133.773575 -57.968567
					CHANNELS 6 Xposition Yposition Zposition Zrotation Xrotation Yrotation
					End Site
					{
						OFFSET 0.000000 -35.672958 0.000000
					}
				}
			}
		}
	}
}
MOTION
Frames: 8
Frame Time: 0.041667
2.237745 116.543053 733.545349 -0.546858 3.147290 1.285809 -0.000001 -0.000024 73.129501 -4.089027 -11.038806 -2.511386 -0.000001 -0.000031 165.477356 -1.674035 10.599543 4.267262 0.000006 -0.000018 183.313644 -17.916107 11.064741 6.784346 -0.000025 -17.836523 138.232788 -18.429940 15.234614 -22.444265 35.598568 3.890324 149.571289 -17.328972 1.863885 1.024564 103.175446 -0.000063 0.000002 -64.492251 43.698075 48.813740 267.562012 -0.000019 -0.000044 -60.758412 37.369338 -71.919877 239.300140 -0.000010 0.000192 -11.172127 -8.300751 -33.453341 -35.671299 3.890314 149.571228 7.685623 -1.657648 2.429389 -103.175438 -0.000015 -0.000072 31.328753 22.686653 -29.767122 -267.562012 -0.000054 0.000112 -2.479876 -11.268874 3.559193 -239.300064 -0.000022 0.000026 -3.056402 -11.745900 20.903442 89.182388 -0.000013 -0.000072 -14.140312 -13.372827 -38.737893 0.000001 0.000083 -464.167633 15.136939 43.228431 25.678998 -0.000089 0.000076 -372.878448 25.652876 -15.550293 8.849725 0.000023 -133.773621 -57.968571 -0.000005 0.000001 0.000001 -89.182388 -0.000004 -0.000019 2.186502 -18.332231 34.467501 0.000029 0.000098 -464.167664 1.980294 39.718226 -35.457735 0.000056 0.000075 -372.878479 -34.114203 -20.865982 -7.700527 -0.000037 -133.773605 -57.968632 -0.000003 0.000002 0.000001 
2.161222 116.453659 733.545532 -0.545427 3.151847 1.291221 -0.000000 0.000006 73.129578 -4.084858 -11.052049 -2.516526 0.000003 -0.000031 165.477341 -1.673401 10.614520 4.272169 -0.000002 -0.000010 183.313766 -17.914364 11.066186 6.776237 -0.000027 -17.836531 138.232758 -18.429633 15.225248 -22.430522 35.598568 3.890325 149.571320 -17.326257 1.862720 1.021250 103.175446 -0.000060 0.000080 -64.516826 43.706514 48.840388 267.562012 -0.000016 0.000011 -60.743830 37.373323 -71.937683 239.300156 -0.000030 0.000075 -11.169817 -8.304762 -33.394700 -35.671303 3.890319 149.571304 7.681900 -1.657418 2.418276 -103.175468 0.000013 -0.000116 31.345497 22.702456 -29.772644 -267.561981 0.000033 -0.000083 -2.466069 -11.303113 3.553839 -239.300186 0.000015 0.000025 -3.035078 -11.778514 20.969297 89.182388 0.000020 -0.000023 -14.140640 -13.368608 -38.743989 -0.000014 0.000072 -464.167755 15.074019 43.201138 25.713878 -0.000013 0.000084 -372.878357 25.704514 -15.539409 8.882810 0.000043 -133.773544 -57.968628 -0.000001 -0.000001 -0.000000 -89.182381 0.000008 -0.000050 2.180246 -18.335441 34.457273 0.000021 0.000084 -464.167755 1.990361 39.723765 -35.467216 0.000064 0.000124 -372.878479 -34.121422 -20.874431 -7.700623 0.000031 -133.773575 -57.968567 -0.000002 0.000000 0.000000 
2.070334 116.405006 733.571960 -0.537293 3.165282 1.296416 -0.000001 -0.000022 73.129547 -4.085725 -11.062769 -2.508227 0.000001 -0.000046 165.477386 -1.671896 10.611431 4.252452 0.000004 -0.000025 183.313919 -17.912893 11.068965 6.768313 0.000034 -17.836517 138.232697 -18.430733 15.210811 -22.391522 35.598564 3.890326 149.571365 -17.315539 1.873212 1.030630 103.175430 -0.000026 0.000219 -64.575047 43.711985 48.877373 267.562012 0.000003 -0.000013 -60.683185 37.358044 -71.999176 239.300064 -0.000007 -0.000034 -11.191210 -8.315473 -33.364859 -35.671307 3.890334 149.571442 7.690327 -1.641490 2.427343 -103.175430 0.000010 -0.000110 31.359926 22.715826 -29.785379 -267.561981 0.000044 -0.000051 -2.485063 -11.292720 3.535017 -239.300125 0.000035 -0.000035 -3.052200 -11.772757 21.031781 89.182388 -0.000013 -0.000038 -14.148146 -13.377945 -38.751994 0.000039 0.000114 -464.167633 15.080141 43.198983 25.696222 -0.000044 0.000072 -372.878357 25.699511 -15.534649 8.869260 0.000015 -133.773590 -57.968567 -0.000002 -0.000000 0.000001 -89.182388 -0.000010 -0.000019 2.172958 -18.346735 34.442206 0.000013 0.000078 -464.167664 1.960168 39.746343 -35.442757 0.000033 0.000117 -372.878387 -34.105638 -20.878445 -7.712767 0.000033 -133.773529 -57.968571 -0.000001 0.000001 0.000001 
1.979193 116.322784 733.574219 -0.532789 3.166830 1.295430 -0.000002 0.000017 73.129539 -4.079233 -11.065670 -2.498296 -0.000001 -0.000012 165.477310 -1.669111 10.620273 4.238648 -0.000004 -0.000010 183.313889 -17.908097 11.053787 6.771557 0.000002 -17.836456 138.232925 -18.427097 15.214943 -22.378237 35.598568 3.890327 149.571396 -17.314446 1.867744 1.042851 103.175461 -0.000036 -0.000072 -64.566331 43.712111 48.874098 267.561920 -0.000018 -0.000026 -60.711584 37.371513 -71.966930 239.300125 0.000010 0.000035 -11.184094 -8.299911 -33.359935 -35.671307 3.890331 149.571381 7.685346 -1.647866 2.438660 -103.175423 0.000023 -0.000113 31.454677 22.806388 -29.849460 -267.561951 0.000046 0.000006 -2.539976 -11.347727 3.551792 -239.300232 -0.000007 -0.000010 -3.022818 -11.818982 20.982355 89.182388 0.000026 -0.000023 -14.146637 -13.374597 -38.748479 0.000016 0.000072 -464.167664 15.080904 43.189065 25.683400 -0.000030 0.000076 -372.878479 25.710097 -15.513035 8.921375 -0.000024 -133.773575 -57.968571 -0.000001 -0.000000 0.000002 -89.182388 0.000025 0.000015 2.169786 -18.346868 34.433678 0.000021 0.000092 -464.167664 1.919366 39.779899 -35.407793 0.000018 0.000113 -372.878418 -34.079157 -20.868081 -7.667242 -0.000030 -133.773590 -57.968567 -0.000003 0.000000 0.000000 
1.905814 116.265640 733.580444 -0.536386 3.175864 1.297411 0.000002 -0.000001 73.129547 -4.068629 -11.066448 -2.485630 0.000001 -0.000016 165.477280 -1.663824 10.613200 4.218407 0.000008 -0.000041 183.313766 -17.909296 11.045518 6.775074 -0.000024 -17.836514 138.232788 -18.428834 15.219494 -22.358884 35.598568 3.890312 149.571381 -17.316179 1.865604 1.048932 103.175461 -0.000064 0.000044 -64.660048 43.737014 48.954449 267.561920 -0.000009 -0.000046 -60.628577 37.350644 -72.057184 239.300064 0.000006 0.000121 -11.172308 -8.324514 -33.403802 -35.671299 3.890318 149.571381 7.674611 -1.621752 2.444078 -103.175438 0.000008 -0.000136 31.483545 22.817893 -29.848873 -267.561981 0.000037 -0.000009 -2.550504 -11.352536 3.538417 -239.300110 0.000024 -0.000117 -3.018268 -11.821750 20.938305 89.182381 0.000016 -0.000023 -14.146404 -13.372611 -38.755316 0.000001 0.000072 -464.167664 15.055875 43.173800 25.698717 -0.000063 0.000091 -372.878418 25.722016 -15.520099 8.910524 0.000003 -133.773544 -57.968567 -0.000002 -0.000002 0.000002 -89.182388 0.000017 -0.000072 2.172111 -18.356540 34.427695 -0.000017 0.000126 -464.167755 1.934135 39.784448 -35.419517 0.000033 0.000109 -372.878540 -34.078887 -20.897865 -7.712080 -0.000015 -133.773544 -57.968571 -0.000004 0.000001 0.000000 
1.832224 116.173477 733.574707 -0.526430 3.177525 1.289928 -0.000001 0.000001 73.129639 -4.066862 -11.069857 -2.472635 0.000001 -0.000050 165.477356 -1.662956 10.617061 4.209604 0.000000 -0.000048 183.313828 -17.906570 11.036994 6.780952 -0.000005 -17.836561 138.232864 -18.427196 15.219910 -22.350430 35.598568 3.890316 149.571381 -17.313198 1.863170 1.055946 103.175446 -0.000021 0.000042 -64.642884 43.728128 48.944589 267.561920 0.000033 -0.000022 -60.677611 37.364649 -72.005698 239.300125 -0.000007 0.000082 -11.174947 -8.304214 -33.442324 -35.671310 3.890319 149.571381 7.666933 -1.622672 2.453102 -103.175423 -0.000003 -0.000011 31.622229 22.982741 -29.933468 -267.561951 0.000088 0.000016 -2.587155 -11.445585 3.572984 -239.300140 0.000006 0.000002 -3.020563 -11.911124 20.861018 89.182388 0.000017 0.000019 -14.139149 -13.383955 -38.734751 -0.000007 0.000106 -464.167633 15.104436 43.186285 25.627163 -0.000059 0.000091 -372.878296 25.685985 -15.528257 8.891638 0.000024 -133.773590 -57.968559 -0.000003 -0.000002 -0.000001 -89.182396 0.000011 0.000050 2.145880 -18.363891 34.429184 -0.000010 0.000082 -464.167633 1.992037 39.774531 -35.451988 -0.000020 0.000078 -372.878418 -34.118687 -20.889150 -7.663783 -0.000033 -133.773560 -57.968563 -0.000007 -0.000001 0.000002 
1.748789 116.110428 733.592285 -0.528859 3.180783 1.292902 -0.000002 -0.000016 73.129501 -4.064404 -11.057407 -2.484981 0.000003 -0.000031 165.477280 -1.663269 10.601126 4.231174 -0.000002 -0.000025 183.313858 -17.900085 11.038163 6.772197 -0.000032 -17.836529 138.232742 -18.420849 15.219123 -22.329598 35.598557 3.890318 149.571396 -17.300215 1.863570 1.048441 103.175430 -0.000010 -0.000021 -64.718310 43.760885 49.004978 267.561951 0.000033 -0.000029 -60.667537 37.359024 -72.052629 239.300186 -0.000014 0.000068 -11.231147 -8.319853 -33.567952 -35.671310 3.890315 149.571335 7.671464 -1.615885 2.450305 -103.175423 0.000002 -0.000059 31.612950 22.964887 -29.943331 -267.561951 0.000048 -0.000045 -2.603528 -11.332876 3.543460 -239.300140 0.000022 0.000088 -3.061008 -11.807174 20.902073 89.182381 -0.000003 -0.000008 -14.135473 -13.380691 -38.737134 0.000031 0.000072 -464.167664 15.117210 43.179435 25.608240 -0.000076 0.000080 -372.878387 25.684786 -15.517737 8.900793 -0.000036 -133.773575 -57.968567 -0.000003 0.000001 -0.000001 -89.182396 -0.000013 -0.000076 2.152809 -18.360993 34.420103 0.000051 0.000092 -464.167664 1.983761 39.779852 -35.447288 -0.000020 0.000090 -372.878387 -34.104627 -20.921494 -7.709063 -0.000021 -133.773605 -57.968567 -0.000004 -0.000001 -0.000000 
1.687935 116.062401 733.607727 -0.530222 3.187589 1.288741 0.000001 0.000004 73.129509 -4.057520 -11.062249 -2.482159 -0.000001 -0.000019 165.477310 -1.661445 10.604994 4.234489 0.000002 -0.000025 183.313736 -17.896486 11.033578 6.771293 0.000003 -17.836592 138.232727 -18.419330 15.210199 -22.319743 35.598564 3.890346 149.571304 -17.310015 1.879909 1.044971 103.175453 -0.000028 0.000056 -64.708249 43.759663 49.000293 267.561951 -0.000004 -0.000004 -60.623291 37.362299 -72.085455 239.300125 -0.000023 0.000094 -11.191528 -8.306296 -33.613482 -35.671307 3.890345 149.571243 7.670000 -1.613654 2.452764 -103.175415 0.000009 -0.000109 31.617612 22.960854 -29.952917 -267.561951 0.000013 -0.000003 -2.543304 -11.467137 3.602848 -239.300049 0.000034 0.000026 -2.998263 -11.926613 20.758786 89.182396 0.000010 0.000011 -14.137371 -13.379904 -38.732295 0.000016 0.000095 -464.167755 15.123741 43.171522 25.596518 -0.000005 0.000080 -372.878387 25.689439 -15.511249 8.906194 -0.000012 -133.773605 -57.968632 -0.000000 0.000001 0.000003 -89.182388 0.000011 0.000015 2.123485 -18.391538 34.406091 -0.000033 0.000067 -464.167664 2.003034 39.804136 -35.423844 0.000049 0.000071 -372.878418 -34.097711 -20.903739 -7.676904 0.000027 -133.773575 -57.968567 -0.000003 0.000001 0.000000 
